<?xml version="1.0" encoding="utf-8"?>
<!-- Generator: Adobe Illustrator 15.1.0, SVG Export Plug-In . SVG Version: 6.00 Build 0)  -->
<!DOCTYPE svg PUBLIC "-//W3C//DTD SVG 1.1//EN" "http://www.w3.org/Graphics/SVG/1.1/DTD/svg11.dtd">
<svg version="1.1" id="Capa_1" xmlns="http://www.w3.org/2000/svg" xmlns:xlink="http://www.w3.org/1999/xlink" x="0px" y="0px"
	 width="800px" height="800px" viewBox="0 0 800 800" enable-background="new 0 0 800 800" xml:space="preserve">
<circle fill="none" stroke="#E21C34" stroke-width="40" stroke-linecap="round" stroke-linejoin="round" stroke-miterlimit="10" cx="401.073" cy="400.846" r="379"/>
<g>
	<g>
		<path fill="#E21C34" d="M595.546,590.32h-30.442v-20.666c0-1.178-0.961-2.137-2.138-2.137c-1.178,0-2.137,0.959-2.137,2.137
			v20.666h-38.476v-20.666c0-1.178-0.959-2.137-2.136-2.137c-1.179,0-2.138,0.959-2.138,2.137v20.666h-38.477v-20.666
			c0-1.178-0.959-2.137-2.136-2.137c-1.179,0-2.138,0.959-2.138,2.137v20.666h-38.477v-20.666c0-1.178-0.959-2.137-2.136-2.137
			c-1.178,0-2.137,0.959-2.137,2.137v20.666h-38.476v-20.666c0-1.178-0.957-2.137-2.138-2.137c-1.177,0-2.137,0.959-2.137,2.137
			v20.666h-38.475v-20.666c0-1.178-0.956-2.137-2.138-2.137c-1.177,0-2.138,0.959-2.138,2.137v20.666h-38.475v-20.666
			c0-1.178-0.955-2.137-2.138-2.137c-1.177,0-2.137,0.959-2.137,2.137v20.666h-38.476v-20.666c0-1.178-0.957-2.137-2.138-2.137
			c-1.177,0-2.137,0.959-2.137,2.137v20.666h-77.666v-48.448h17.172c1.177,0,2.138-0.957,2.138-2.139
			c0-1.181-0.96-2.136-2.138-2.136h-17.172v-38.477h17.172c1.177,0,2.138-0.956,2.138-2.137c0-1.182-0.96-2.137-2.138-2.137h-17.172
			v-38.477h17.172c1.177,0,2.138-0.956,2.138-2.136c0-1.183-0.96-2.138-2.138-2.138h-17.172v-38.475h17.172
			c1.177,0,2.138-0.958,2.138-2.138c0-1.183-0.96-2.138-2.138-2.138h-17.172v-38.479h17.172c1.177,0,2.138-0.957,2.138-2.138
			c0-1.18-0.96-2.138-2.138-2.138h-17.172v-38.476h17.172c1.177,0,2.138-0.956,2.138-2.137c0-1.179-0.96-2.137-2.138-2.137h-17.172
			v-38.477h17.172c1.177,0,2.138-0.956,2.138-2.136c0-1.179-0.96-2.138-2.138-2.138h-17.172v-38.477h17.172
			c1.177,0,2.138-0.956,2.138-2.137c0-1.179-0.96-2.139-2.138-2.139h-17.172v-34.914c0-3.54-2.872-6.413-6.412-6.413
			c-3.541,0-6.413,2.873-6.413,6.413v393.308c0,3.54,2.873,6.41,6.413,6.41h418.045c3.541,0,6.413-2.871,6.413-6.41
			C601.959,593.193,599.088,590.32,595.546,590.32z"/>
		<rect x="237.969" y="255.168" fill="#E21C34" width="43.82" height="289.83"/>
		<path fill="#E21C34" d="M374.771,391.569c-5.735-7.5-10.391-15.566-13.947-23.989h-29.872v177.417h43.82L374.771,391.569
			L374.771,391.569z"/>
		<path fill="#E21C34" d="M466.691,434.731c-1.419,0.063-2.838,0.15-4.26,0.15c-13.755,0-27.103-2.521-39.56-7.29v117.397h43.819
			V434.731z"/>
		<path fill="#E21C34" d="M562.88,461.101l-42.167-42.785c-0.543,0.335-1.11,0.627-1.653,0.949V544.99h43.82V461.101L562.88,461.101
			z"/>
		<path fill="#E21C34" d="M657.382,505.444L539.061,385.39c29.671-38.269,27.027-93.678-8.1-128.803
			c-38.074-38.078-100.038-38.078-138.126,0c-38.074,38.083-38.074,100.036,0,138.124c35.128,35.127,90.528,37.765,128.808,8.099
			l118.325,120.053c4.81,4.81,12.595,4.81,17.404,0C662.192,518.054,662.192,510.255,657.382,505.444z M513.561,377.298
			c-28.481,28.48-74.82,28.485-103.304,0c-28.48-28.475-28.475-74.818,0-103.292c28.483-28.477,74.818-28.486,103.304,0
			C542.043,302.479,542.043,348.823,513.561,377.298z"/>
		<path fill="#E21C34" d="M465.467,315.203c-11.172-4.621-14.403-7.417-14.403-12.479c0-4.043,2.963-8.771,11.306-8.771
			c7.856,0,12.796,2.824,14.908,4.03c0.539,0.312,1.189,0.364,1.782,0.159c0.593-0.215,1.051-0.668,1.276-1.252l3.174-8.379
			c0.372-0.975-0.017-2.075-0.918-2.601c-4.544-2.646-9.611-4.163-15.428-4.603v-10.283c0-1.178-0.956-2.137-2.137-2.137h-7.857
			c-1.177,0-2.137,0.958-2.137,2.137v11.043c-11.69,2.583-19.142,11.128-19.142,22.179c0,13.335,10.702,19.38,22.242,23.92
			c9.23,3.732,12.992,7.53,12.992,13.099c0,6.152-5.21,10.284-12.941,10.284c-5.986,0-12.212-1.855-17.076-5.086
			c-0.542-0.368-1.228-0.453-1.854-0.253c-0.63,0.203-1.127,0.689-1.339,1.309l-3.044,8.486c-0.323,0.904-0.01,1.908,0.771,2.463
			c4.446,3.173,11.527,5.404,18.499,5.886v10.757c0,1.179,0.964,2.138,2.138,2.138h7.986c1.182,0,2.138-0.958,2.138-2.138v-11.418
			c12.054-2.699,20.035-11.877,20.035-23.316C486.437,328.717,480.157,321.188,465.467,315.203z"/>
	</g>
</g>
</svg>
