<?xml version="1.0" encoding="utf-8"?>
<!-- Generator: Adobe Illustrator 15.1.0, SVG Export Plug-In . SVG Version: 6.00 Build 0)  -->
<!DOCTYPE svg PUBLIC "-//W3C//DTD SVG 1.1//EN" "http://www.w3.org/Graphics/SVG/1.1/DTD/svg11.dtd">
<svg version="1.1" id="Capa_1" xmlns="http://www.w3.org/2000/svg" xmlns:xlink="http://www.w3.org/1999/xlink" x="0px" y="0px"
	 width="800px" height="800px" viewBox="0 0 800 800" enable-background="new 0 0 800 800" xml:space="preserve">
<circle fill="none" stroke="#E21C34" stroke-width="40" stroke-linecap="round" stroke-linejoin="round" stroke-miterlimit="10" cx="401.373" cy="402.781" r="379"/>
<g>
	<path fill="#E21C34" d="M279.781,202.976l14.321,6.249c-9.934,6.083-14.416,12.03-13.282,17.694
		c1.167,5.852,6.516,10.897,15.915,15c8.656,3.779,18.856,5.825,31.186,6.256c12.158,0.421,30.914-2.998,55.767-10.172
		c6.174-1.787,11.014-2.826,14.373-3.085c3.291-0.259,5.942,0.11,8.353,1.165c1.659,0.724,6.716,2.926-5.991,8.476
		c-8.254,3.602-16.8,5.084-25.396,4.409c-6.802-0.53-13.69,0.723-17.602,3.211l-7.636,4.855c-3.337,2.121-4.014,4.833-1.813,7.218
		c2.197,2.385,6.993,4.127,12.762,4.645c18.857,1.693,37.469-0.479,55.351-6.422l19.33,8.44c6.871,2.999,18,2.999,24.867,0.007
		c6.865-3,6.865-7.859,0-10.857l-20.003-8.733c8.786-5.582,13.407-11.224,13.732-16.805c0.386-6.529-4.888-12.229-15.672-16.938
		c-7.698-3.361-16.478-5.441-26.08-6.18c-9.604-0.745-18.708-0.33-27.042,1.234c-8.223,1.545-20.737,4.664-37.118,9.248
		c-7.129,1.975-11.964,2.982-14.387,2.997c-2.315,0.012-4.391-0.354-6-1.059c-5.708-2.486-0.912-5.63,4.116-7.825
		c6.241-2.724,12.902-4.011,19.791-3.83c6.907,0.183,13.421-1.43,16.626-4.104l4.429-3.695c2.803-2.336,2.653-5.138-0.391-7.419
		c-3.04-2.277-8.553-3.716-14.593-3.806c-13.109-0.188-25.752,1.564-38.473,5.333l-14.575-6.36c-6.869-2.998-18-2.998-24.867,0
		C272.918,195.119,272.918,199.979,279.781,202.976z"/>
	<path fill="#E21C34" d="M582.243,280.501c1.164-4.839,1.759-9.769,1.759-14.765v-15.792c0-31.556-23.56-60.409-66.34-81.244
		c-39.66-19.315-92.09-29.953-147.628-29.953c-55.54,0-107.967,10.637-147.629,29.953c-42.78,20.834-66.34,49.688-66.34,81.244
		v15.792c0,31.118,22.923,59.602,64.582,80.365c-1.156,4.816-1.901,10.818-1.901,14.695v2.881
		c-40.46,20.678-62.681,48.771-62.681,79.414v15.791c0,21.279,10.727,41.324,30.823,58.516c-2.719,7.268-4.136,14.766-4.136,22.428
		v15.793c0,31.555,23.56,60.408,66.339,81.242c39.663,19.316,92.089,29.953,147.629,29.953s107.968-10.637,147.629-29.953
		c42.779-20.834,66.34-49.688,66.34-81.242v-15.793c0-21.275-10.717-41.316-30.805-58.508c2.716-7.268,4.117-14.771,4.117-22.436
		v-2.879c40.46-20.68,62.681-48.771,62.681-79.416v-15.793C646.683,329.713,623.812,301.26,582.243,280.501z M185.967,236.58
		c6.197-15.756,23.076-31.054,48.372-43.373c36.018-17.541,84.208-27.201,135.695-27.201c51.486,0,99.677,9.66,135.694,27.201
		c25.298,12.319,42.176,27.618,48.372,43.373c-21.893,38.081-97.957,65.848-184.068,65.848
		C283.922,302.428,207.859,274.662,185.967,236.58z M185.967,429.729c5.039-12.809,17.174-25.307,35.12-36.158
		c6.914,24.845,29.033,47.232,64,64.261c39.662,19.316,92.089,29.953,147.629,29.953c5.428,0,10.817-0.133,16.179-0.332
		c-24.247,5.213-51.023,8.125-78.859,8.125C283.924,495.576,207.859,467.809,185.967,429.729z M580.788,526.461
		c-21.894,38.082-97.958,65.848-184.068,65.848c-74.805,0-141.987-20.963-172.699-51.432
		c39.467,18.828,91.214,29.203,146.013,29.203c55.539,0,107.968-10.639,147.628-29.953c20.55-10.01,36.65-21.869,47.849-34.99
		C572.738,511.982,577.919,519.17,580.788,526.461z M432.714,413.281c-75.183,0-142.704-21.167-173.203-51.886
		c32.937,10.104,70.925,15.537,110.523,15.537c55.539,0,107.968-10.637,147.628-29.951c24.017-11.696,41.974-25.92,53.106-41.73
		c23.975,12.109,40.013,26.926,46.014,42.183C594.89,385.513,518.825,413.281,432.714,413.281z"/>
</g>
</svg>
