<?xml version="1.0" encoding="utf-8"?>
<!-- Generator: Adobe Illustrator 15.1.0, SVG Export Plug-In . SVG Version: 6.00 Build 0)  -->
<!DOCTYPE svg PUBLIC "-//W3C//DTD SVG 1.1//EN" "http://www.w3.org/Graphics/SVG/1.1/DTD/svg11.dtd">
<svg version="1.1" id="Capa_1" xmlns="http://www.w3.org/2000/svg" xmlns:xlink="http://www.w3.org/1999/xlink" x="0px" y="0px"
	 width="800px" height="800px" viewBox="0 0 800 800" enable-background="new 0 0 800 800" xml:space="preserve">
<circle fill="none" stroke="#E21C34" stroke-width="40" stroke-linecap="round" stroke-linejoin="round" stroke-miterlimit="10" cx="396.834" cy="401" r="379"/>
<g>
	<rect x="139.599" y="401.063" fill="#E21C34" width="152.158" height="204.326"/>
	<rect x="501.912" y="348.562" fill="#E21C34" width="152.158" height="256.827"/>
	<rect x="320.745" y="272.373" fill="#E21C34" width="152.201" height="333.016"/>
	<path fill="#E21C34" d="M579.162,193.755l21.548,43.712l48.26,7.021l-34.882,34.021l8.213,48.063l-43.139-22.696l-43.14,22.696
		l8.213-48.063l-34.884-34.021l48.219-7.021L579.162,193.755z"/>
	<path fill="#E21C34" d="M397.662,118.006l21.57,43.736l48.262,7.02l-34.882,34.044l8.234,48.019l-43.162-22.673l-43.161,22.673
		l8.213-48.019l-34.883-34.044l48.24-7.02L397.662,118.006z"/>
	<path fill="#E21C34" d="M213.03,244.731l21.547,43.735l48.262,7.043l-34.861,33.999l8.213,48.041l-43.161-22.673l-43.162,22.695
		l8.235-48.041l-34.883-34l48.24-7.042L213.03,244.731z"/>
</g>
</svg>
