<?xml version="1.0" encoding="utf-8"?>
<!-- Generator: Adobe Illustrator 15.1.0, SVG Export Plug-In . SVG Version: 6.00 Build 0)  -->
<!DOCTYPE svg PUBLIC "-//W3C//DTD SVG 1.1//EN" "http://www.w3.org/Graphics/SVG/1.1/DTD/svg11.dtd">
<svg version="1.1" id="Capa_1" xmlns="http://www.w3.org/2000/svg" xmlns:xlink="http://www.w3.org/1999/xlink" x="0px" y="0px"
	 width="800px" height="800px" viewBox="0 0 800 800" enable-background="new 0 0 800 800" xml:space="preserve">
<circle fill="none" stroke="#E21C34" stroke-width="40" stroke-linecap="round" stroke-linejoin="round" stroke-miterlimit="10" cx="400.31" cy="402.391" r="379"/>
<g>
	<path fill="#E21C34" d="M456.354,252.696c25.048,15.706,42.616,42.278,45.811,73.129c10.214,4.77,21.549,7.517,33.571,7.517
		c43.883,0,79.446-35.567,79.446-79.44c0-43.883-35.563-79.447-79.446-79.447C492.276,174.467,457.022,209.397,456.354,252.696z
		 M404.305,415.363c43.883,0,79.454-35.571,79.454-79.447c0-43.873-35.578-79.44-79.454-79.44c-43.872,0-79.46,35.574-79.46,79.447
		C324.845,379.798,360.433,415.363,404.305,415.363z M438.008,420.783h-67.415c-56.089,0-101.721,45.632-101.721,101.722v82.444
		l0.207,1.293l5.681,1.777c53.528,16.722,100.031,22.307,138.306,22.307c74.767,0,118.095-21.323,120.769-22.683l5.308-2.681h0.567
		v-82.458C539.729,466.415,494.097,420.783,438.008,420.783z M569.451,338.761h-66.897c-0.719,26.764-12.147,50.864-30.216,68.198
		c49.857,14.827,86.332,61.061,86.332,115.671v25.404c66.053-2.423,104.112-21.139,106.62-22.399l5.301-2.688h0.568v-82.464
		C671.159,384.393,625.527,338.761,569.451,338.761z M264.904,333.354c15.541,0,30.002-4.536,42.252-12.263
		c3.893-25.397,17.509-47.593,36.958-62.708c0.082-1.489,0.225-2.961,0.225-4.463c0-43.882-35.575-79.447-79.435-79.447
		c-43.889,0-79.446,35.564-79.446,79.447C185.457,297.78,221.015,333.354,264.904,333.354z M336.25,406.959
		c-17.98-17.245-29.365-41.215-30.197-67.818c-2.481-0.181-4.935-0.379-7.463-0.379h-67.408
		c-56.09,0-101.722,45.632-101.722,101.722v82.45l0.207,1.275l5.682,1.788c42.941,13.409,81.266,19.588,114.553,21.529V522.63
		C249.914,468.02,286.38,421.8,336.25,406.959z"/>
</g>
</svg>
